HIERARCHY
ROOT Hips
{
  OFFSET 53.2593 93.6201 17.7838
  CHANNELS 6 Xposition Yposition Zposition Zrotation Xrotation Yrotation
  JOINT spine
  {
    OFFSET 0 7.4756 0.429885
    CHANNELS 3 Zrotation Xrotation Yrotation
    JOINT spine1
    {
      OFFSET 0 9.92301 0
      CHANNELS 3 Zrotation Xrotation Yrotation
      JOINT spine2
      {
        OFFSET 0 9.50804 0
        CHANNELS 3 Zrotation Xrotation Yrotation
        JOINT Neck
        {
          OFFSET 0 24.4111 1.16384
          CHANNELS 3 Zrotation Xrotation Yrotation
          JOINT Head
          {
            OFFSET 0 7.37523 0
            CHANNELS 3 Zrotation Xrotation Yrotation
            End Site
            {
              OFFSET 0 17.8522 -5.88741
            }
          }
        }
        JOINT RightShoulder
        {
          OFFSET -4.00356 10.2679 -0.557468
          CHANNELS 3 Zrotation Xrotation Yrotation
          JOINT RightArm
          {
            OFFSET 0 13.4673 0
            CHANNELS 3 Zrotation Xrotation Yrotation
            JOINT RightArmRoll
            {
              OFFSET 0 6.79858 0
              CHANNELS 3 Zrotation Xrotation Yrotation
              JOINT RightForeArm
              {
                OFFSET 0 19.8018 0
                CHANNELS 3 Zrotation Xrotation Yrotation
                JOINT RightForeArmRoll
                {
                  OFFSET 0 7.62905 0
                  CHANNELS 3 Zrotation Xrotation Yrotation
                  JOINT RightHand
                  {
                    OFFSET 0 15.3098 0
                    CHANNELS 3 Zrotation Xrotation Yrotation
                    End Site
                    {
                      OFFSET 0 0 0
                    }
                  }
                }
              }
            }
          }
        }
        JOINT LeftShoulder
        {
          OFFSET 4.00356 10.2679 -0.557468
          CHANNELS 3 Zrotation Xrotation Yrotation
          JOINT LeftArm
          {
            OFFSET 0 13.4673 0
            CHANNELS 3 Zrotation Xrotation Yrotation
            JOINT LeftArmRoll
            {
              OFFSET 0 6.79858 0
              CHANNELS 3 Zrotation Xrotation Yrotation
              JOINT LeftForeArm
              {
                OFFSET 0 19.8018 0
                CHANNELS 3 Zrotation Xrotation Yrotation
                JOINT LeftForeArmRoll
                {
                  OFFSET 0 7.62905 0
                  CHANNELS 3 Zrotation Xrotation Yrotation
                  JOINT LeftHand
                  {
                    OFFSET 0 15.3098 0
                    CHANNELS 3 Zrotation Xrotation Yrotation
                    End Site
                    {
                      OFFSET 0 0 0
                    }
                  }
                }
              }
            }
          }
        }
      }
    }
  }
  JOINT RightUpLeg
  {
    OFFSET -6.62609 -1.21505 -1.01927
    CHANNELS 3 Zrotation Xrotation Yrotation
    JOINT RightUpLegRoll
    {
      OFFSET 0 17.9517 0
      CHANNELS 3 Zrotation Xrotation Yrotation
      JOINT RightLeg
      {
        OFFSET 0 -22.2304 0
        CHANNELS 3 Zrotation Xrotation Yrotation
        JOINT RightLegRoll
        {
          OFFSET 0 22.3032 0
          CHANNELS 3 Zrotation Xrotation Yrotation
          JOINT RightFoot
          {
            OFFSET 0 18.5636 0
            CHANNELS 3 Zrotation Xrotation Yrotation
            JOINT RightToeBase
            {
              OFFSET 0 15.5183 0
              CHANNELS 3 Zrotation Xrotation Yrotation
              End Site
              {
                OFFSET 0.00657761 7.51538 -0.866263
              }
            }
          }
        }
      }
    }
  }
  JOINT LeftUpLeg
  {
    OFFSET 6.62609 -1.21505 -1.01927
    CHANNELS 3 Zrotation Xrotation Yrotation
    JOINT LeftUpLegRoll
    {
      OFFSET 0 17.9518 0
      CHANNELS 3 Zrotation Xrotation Yrotation
      JOINT LeftLeg
      {
        OFFSET 0 22.2303 0
        CHANNELS 3 Zrotation Xrotation Yrotation
        JOINT LeftLegRoll
        {
          OFFSET 0 22.5093 0
          CHANNELS 3 Zrotation Xrotation Yrotation
          JOINT LeftFoot
          {
            OFFSET 0 18.3575 0
            CHANNELS 3 Zrotation Xrotation Yrotation
            JOINT LeftToeBase
            {
              OFFSET 0 15.5183 0
              CHANNELS 3 Zrotation Xrotation Yrotation
              End Site
              {
                OFFSET -0.029478 7.51538 -0.866263
              }
            }
          }
        }
      }
    }
  }
}
MOTION
Frames: 5
Frame Time: 0.00208333
53.7898 93.3399 15.4741 0.132719 -1.62534 -2.5849 -0.546772 -1.86511 -0.11401 -1.09595 0.273274 -0.185786 -1.09398 1.91816 -0.167512 0.77483 0.707543 1.20848 4.78069 12.8618 1.32223 76.1229 -2.27658 -2.96715 100.776 28.7026 12.4029 8.98964e-007 -8.19859e-008 -3.47304e-006 8.29215 0.071632 -1.68386 7.40818e-007 5.17591e-007 -3.13764 8.02913 -4.95144 0.697677 -68.4731 -8.41113 5.43729 -102.79 13.1394 -21.6954 2.86695e-006 -7.37637e-007 1.69601e-005 -1.18585 2.75822 0.864871 -8.83056e-006 -1.02705e-005 3.00211 -8.03022 -4.95138 -0.697663 -176.112 8.16301 -4.78797 180 1.5256e-005 178.902 -179.469 16.8715 179.134 -4.82919e-006 -3.06388e-006 0.297675 -19.2455 68.655 20.0779 8.14051 25.2324 -3.48945 -178.3 6.46036 1.62782 4.54188e-006 -4.6773e-006 -0.984011 -3.24528 -13.9354 0.0699651 -2.78954e-006 7.69505e-007 -0.176005 18.0563 67.426 -19.0759 -8.14254 25.2323 3.49031 
53.78 93.3362 15.499 0.141526 -1.66813 -2.63858 -0.548832 -1.86454 -0.115013 -1.09951 0.27441 -0.188212 -1.09761 1.9193 -0.169877 0.75177 0.767016 1.24013 4.79256 12.8537 1.35139 76.1161 -2.27684 -2.9667 100.818 28.755 12.3939 8.98964e-007 -8.19859e-008 -3.47304e-006 8.27701 0.0715505 -1.68358 7.40818e-007 5.17591e-007 -3.13738 8.02913 -4.95144 0.697677 -68.5057 -8.43349 5.44953 -102.763 13.1381 -21.7715 2.86695e-006 -7.37637e-007 1.69601e-005 -1.13163 2.73613 0.863315 -8.83056e-006 -1.02705e-005 3.00211 -8.03022 -4.95138 -0.697663 -176.122 8.0948 -4.77278 180 1.5256e-005 178.901 -179.471 16.8494 179.135 -4.82919e-006 -3.06388e-006 0.296553 -19.2376 68.6457 20.0696 8.14051 25.2324 -3.48945 -178.308 6.3731 1.62882 4.54188e-006 -4.6773e-006 -0.985162 -3.25027 -13.9027 0.0692667 -2.78954e-006 7.69505e-007 -0.175881 18.0673 67.4397 -19.0872 -8.14254 25.2323 3.49031 
53.7732 93.3318 15.535 0.149993 -1.71119 -2.69142 -0.550794 -1.86346 -0.116287 -1.10297 0.276588 -0.190965 -1.10112 1.92147 -0.172571 0.728573 0.820682 1.2716 4.80388 12.8478 1.38025 76.1085 -2.27778 -2.96647 100.862 28.8065 12.3853 8.98963e-007 -8.19859e-008 -3.47304e-006 8.26141 0.071469 -1.68292 7.40818e-007 5.17591e-007 -3.13714 8.02913 -4.95144 0.697677 -68.5359 -8.45764 5.46259 -102.741 13.1392 -21.845 2.86695e-006 -7.37637e-007 1.69601e-005 -1.07774 2.71489 0.86177 -8.83056e-006 -1.02705e-005 3.00211 -8.03022 -4.95138 -0.697663 -176.131 8.02684 -4.75859 180 1.5256e-005 178.901 -179.471 16.8278 179.136 -4.82919e-006 -3.06388e-006 0.295496 -19.2301 68.6368 20.0617 8.14051 25.2324 -3.48945 -178.316 6.28679 1.62896 4.54188e-006 -4.6773e-006 -0.986306 -3.25574 -13.8714 0.0684565 -2.78954e-006 7.69505e-007 -0.175745 18.0776 67.4525 -19.0978 -8.14254 25.2323 3.49031 
53.7666 93.3276 15.5504 0.158071 -1.75466 -2.74326 -0.552637 -1.86183 -0.117859 -1.10632 0.279883 -0.194057 -1.10449 1.92477 -0.175607 0.705125 0.8683 1.30279 4.81471 12.8444 1.4087 76.0997 -2.2795 -2.96647 100.907 28.8569 12.3772 8.98964e-007 -8.19859e-008 -3.47304e-006 8.2451 0.0713878 -1.68183 7.40818e-007 5.17591e-007 -3.13693 8.02913 -4.95144 0.697677 -68.5634 -8.48349 5.47642 -102.722 13.1424 -21.9155 2.86695e-006 -7.37637e-007 1.69601e-005 -1.0244 2.69469 0.860243 -8.83056e-006 -1.02705e-005 3.00211 -8.03022 -4.95138 -0.697663 -176.139 7.95871 -4.74552 180 1.5256e-005 178.9 -179.47 16.8062 179.136 -4.82919e-006 -3.06388e-006 0.294499 -19.223 68.6284 20.0542 8.14051 25.2324 -3.48945 -178.322 6.20117 1.62808 4.54188e-006 -4.6773e-006 -0.987439 -3.26177 -13.8415 0.0675085 -2.78954e-006 7.69505e-007 -0.175592 18.0872 67.4644 -19.1075 -8.14254 25.2323 3.49031 
53.7594 93.3346 15.5862 0.166009 -1.79802 -2.79514 -0.554458 -1.85964 -0.119796 -1.10975 0.28427 -0.197592 -1.10791 1.92915 -0.179086 0.682504 0.908069 1.33428 4.82398 12.8447 1.43742 76.0916 -2.28186 -2.96681 100.952 28.9079 12.37 8.98963e-007 -8.19859e-008 -3.47304e-006 8.22815 0.0713062 -1.68034 7.40818e-007 5.17591e-007 -3.13675 8.02913 -4.95144 0.697677 -68.5872 -8.51306 5.49206 -102.709 13.1495 -21.9841 2.86695e-006 -7.37637e-007 1.69601e-005 -0.969927 2.67474 0.858688 -8.83056e-006 -1.02705e-005 3.00211 -8.03022 -4.95138 -0.697663 -176.147 7.89234 -4.73362 180 1.5256e-005 178.899 -179.469 16.7867 179.137 -4.82919e-006 -3.06388e-006 0.293617 -19.2165 68.6206 20.0475 8.14051 25.2324 -3.48945 -178.328 6.117 1.62613 4.54188e-006 -4.6773e-006 -0.988557 -3.26863 -13.813 0.0664164 -2.78954e-006 7.69505e-007 -0.175431 18.0957 67.4749 -19.1161 -8.14254 25.2323 3.49031 
